<svg width="185" height="45" viewBox="0 0 185 45" fill="none" xmlns="http://www.w3.org/2000/svg">
<path d="M0 0H185L175.5 45H0V0Z" fill="#FF6201" fill-opacity="0.5"/>
<path d="M0 0H185L167.5 45H0V0Z" fill="#FF4601"/>
<path d="M50.88 30.2C49.8667 30.2 48.9267 30.02 48.06 29.66C47.2067 29.2867 46.46 28.7733 45.82 28.12C45.18 27.4533 44.6867 26.6867 44.34 25.82C43.9933 24.94 43.82 24 43.82 23C43.82 22 43.9933 21.0667 44.34 20.2C44.6867 19.32 45.18 18.5533 45.82 17.9C46.46 17.2467 47.2067 16.7333 48.06 16.36C48.9267 15.9867 49.8667 15.8 50.88 15.8C52.0133 15.8 52.9933 15.9867 53.82 16.36C54.6467 16.7333 55.38 17.24 56.02 17.88L54.46 19.44C54.0467 18.9867 53.54 18.6333 52.94 18.38C52.3533 18.1267 51.6667 18 50.88 18C50.1867 18 49.5533 18.12 48.98 18.36C48.4067 18.6 47.9067 18.9467 47.48 19.4C47.0667 19.84 46.7467 20.3667 46.52 20.98C46.2933 21.5933 46.18 22.2667 46.18 23C46.18 23.7333 46.2933 24.4067 46.52 25.02C46.7467 25.6333 47.0667 26.1667 47.48 26.62C47.9067 27.06 48.4067 27.4 48.98 27.64C49.5533 27.88 50.1867 28 50.88 28C51.7333 28 52.4533 27.8733 53.04 27.62C53.64 27.3533 54.1467 26.9933 54.56 26.54L56.12 28.1C55.48 28.7533 54.7267 29.2667 53.86 29.64C52.9933 30.0133 52 30.2 50.88 30.2ZM61.9794 30.2C61.046 30.2 60.1994 29.98 59.4394 29.54C58.6794 29.0867 58.0727 28.48 57.6194 27.72C57.1794 26.96 56.9594 26.1133 56.9594 25.18C56.9594 24.2467 57.1794 23.4067 57.6194 22.66C58.0727 21.9133 58.6794 21.32 59.4394 20.88C60.1994 20.4267 61.046 20.2 61.9794 20.2C62.926 20.2 63.7794 20.42 64.5394 20.86C65.2994 21.3 65.8994 21.9 66.3394 22.66C66.7927 23.4067 67.0194 24.2467 67.0194 25.18C67.0194 26.1133 66.7927 26.96 66.3394 27.72C65.8994 28.48 65.2994 29.0867 64.5394 29.54C63.7794 29.98 62.926 30.2 61.9794 30.2ZM61.9794 28.08C62.526 28.08 63.006 27.96 63.4194 27.72C63.846 27.4667 64.1727 27.12 64.3994 26.68C64.6394 26.24 64.7594 25.74 64.7594 25.18C64.7594 24.62 64.6394 24.1267 64.3994 23.7C64.1594 23.2733 63.8327 22.94 63.4194 22.7C63.006 22.4467 62.526 22.32 61.9794 22.32C61.446 22.32 60.966 22.4467 60.5394 22.7C60.126 22.94 59.7994 23.2733 59.5594 23.7C59.3327 24.1267 59.2194 24.62 59.2194 25.18C59.2194 25.74 59.3327 26.24 59.5594 26.68C59.7994 27.12 60.126 27.4667 60.5394 27.72C60.966 27.96 61.446 28.08 61.9794 28.08ZM75.4289 30V24.46C75.4289 23.82 75.2222 23.2933 74.8089 22.88C74.4089 22.4667 73.8889 22.26 73.2489 22.26C72.8222 22.26 72.4422 22.3533 72.1089 22.54C71.7756 22.7267 71.5156 22.9867 71.3289 23.32C71.1422 23.6533 71.0489 24.0333 71.0489 24.46L70.1889 23.98C70.1889 23.2467 70.3489 22.6 70.6689 22.04C70.9889 21.4667 71.4289 21.02 71.9889 20.7C72.5622 20.3667 73.2022 20.2 73.9089 20.2C74.6289 20.2 75.2689 20.3867 75.8289 20.76C76.3889 21.12 76.8289 21.5933 77.1489 22.18C77.4689 22.7533 77.6289 23.3533 77.6289 23.98V30H75.4289ZM68.8489 30V20.4H71.0489V30H68.8489ZM81.2073 30V16.4H83.4073V30H81.2073ZM78.9073 22.4V20.4H85.7073V22.4H78.9073ZM91.0525 30.2C90.1858 30.2 89.3992 29.98 88.6925 29.54C87.9992 29.1 87.4458 28.5067 87.0325 27.76C86.6325 27 86.4325 26.1533 86.4325 25.22C86.4325 24.2733 86.6325 23.4267 87.0325 22.68C87.4458 21.92 87.9992 21.32 88.6925 20.88C89.3992 20.4267 90.1858 20.2 91.0525 20.2C91.7858 20.2 92.4325 20.36 92.9925 20.68C93.5658 20.9867 94.0192 21.4133 94.3525 21.96C94.6858 22.5067 94.8525 23.1267 94.8525 23.82V26.58C94.8525 27.2733 94.6858 27.8933 94.3525 28.44C94.0325 28.9867 93.5858 29.42 93.0125 29.74C92.4392 30.0467 91.7858 30.2 91.0525 30.2ZM91.4125 28.12C92.2258 28.12 92.8792 27.8467 93.3725 27.3C93.8792 26.7533 94.1325 26.0533 94.1325 25.2C94.1325 24.6267 94.0192 24.12 93.7925 23.68C93.5658 23.24 93.2458 22.9 92.8325 22.66C92.4325 22.4067 91.9592 22.28 91.4125 22.28C90.8792 22.28 90.4058 22.4067 89.9925 22.66C89.5925 22.9 89.2725 23.24 89.0325 23.68C88.8058 24.12 88.6925 24.6267 88.6925 25.2C88.6925 25.7733 88.8058 26.28 89.0325 26.72C89.2725 27.16 89.5925 27.5067 89.9925 27.76C90.4058 28 90.8792 28.12 91.4125 28.12ZM93.9925 30V27.42L94.3725 25.08L93.9925 22.76V20.4H96.1925V30H93.9925ZM103.054 30.2C102.107 30.2 101.247 29.98 100.474 29.54C99.7141 29.1 99.1141 28.5 98.6741 27.74C98.2341 26.98 98.0141 26.1333 98.0141 25.2C98.0141 24.2533 98.2341 23.4067 98.6741 22.66C99.1141 21.9 99.7141 21.3 100.474 20.86C101.247 20.42 102.107 20.2 103.054 20.2C103.801 20.2 104.494 20.3467 105.134 20.64C105.787 20.92 106.341 21.3267 106.794 21.86L105.354 23.32C105.074 22.9867 104.734 22.74 104.334 22.58C103.947 22.4067 103.521 22.32 103.054 22.32C102.507 22.32 102.021 22.4467 101.594 22.7C101.181 22.94 100.854 23.2733 100.614 23.7C100.387 24.1267 100.274 24.6267 100.274 25.2C100.274 25.76 100.387 26.26 100.614 26.7C100.854 27.1267 101.181 27.4667 101.594 27.72C102.021 27.96 102.507 28.08 103.054 28.08C103.521 28.08 103.947 28 104.334 27.84C104.734 27.6667 105.074 27.4133 105.354 27.08L106.794 28.54C106.341 29.0733 105.787 29.4867 105.134 29.78C104.494 30.06 103.801 30.2 103.054 30.2ZM109.684 30V16.4H111.884V30H109.684ZM107.384 22.4V20.4H114.184V22.4H107.384ZM125.486 30.2C124.433 30.2 123.486 29.96 122.646 29.48C121.806 29 121.14 28.3467 120.646 27.52C120.166 26.68 119.926 25.7333 119.926 24.68V16H122.226V24.66C122.226 25.34 122.366 25.9333 122.646 26.44C122.94 26.9333 123.333 27.32 123.826 27.6C124.32 27.8667 124.873 28 125.486 28C126.113 28 126.666 27.8667 127.146 27.6C127.626 27.32 128.006 26.9333 128.286 26.44C128.566 25.9333 128.706 25.3467 128.706 24.68V16H131.006V24.7C131.006 25.7533 130.766 26.6933 130.286 27.52C129.806 28.3467 129.153 29 128.326 29.48C127.5 29.96 126.553 30.2 125.486 30.2ZM136.735 30.2C136.202 30.2 135.688 30.1333 135.195 30C134.702 29.8533 134.248 29.6533 133.835 29.4C133.422 29.1333 133.062 28.8133 132.755 28.44L134.155 27.04C134.488 27.4267 134.868 27.72 135.295 27.92C135.735 28.1067 136.228 28.2 136.775 28.2C137.268 28.2 137.642 28.1267 137.895 27.98C138.148 27.8333 138.275 27.62 138.275 27.34C138.275 27.0467 138.155 26.82 137.915 26.66C137.675 26.5 137.362 26.3667 136.975 26.26C136.602 26.14 136.202 26.02 135.775 25.9C135.362 25.78 134.962 25.62 134.575 25.42C134.202 25.2067 133.895 24.92 133.655 24.56C133.415 24.2 133.295 23.7333 133.295 23.16C133.295 22.5467 133.435 22.02 133.715 21.58C134.008 21.14 134.415 20.8 134.935 20.56C135.468 20.32 136.102 20.2 136.835 20.2C137.608 20.2 138.288 20.34 138.875 20.62C139.475 20.8867 139.975 21.2933 140.375 21.84L138.975 23.24C138.695 22.8933 138.375 22.6333 138.015 22.46C137.655 22.2867 137.242 22.2 136.775 22.2C136.335 22.2 135.995 22.2667 135.755 22.4C135.515 22.5333 135.395 22.7267 135.395 22.98C135.395 23.2467 135.515 23.4533 135.755 23.6C135.995 23.7467 136.302 23.8733 136.675 23.98C137.062 24.0867 137.462 24.2067 137.875 24.34C138.302 24.46 138.702 24.6333 139.075 24.86C139.462 25.0733 139.775 25.3667 140.015 25.74C140.255 26.1 140.375 26.5733 140.375 27.16C140.375 28.0933 140.048 28.8333 139.395 29.38C138.742 29.9267 137.855 30.2 136.735 30.2Z" fill="white"/>
</svg>
