<svg width="312" height="58" viewBox="0 0 312 58" fill="none" xmlns="http://www.w3.org/2000/svg">
<g filter="url(#filter0_d_5_40)">
<path d="M8.872 48.784L7.82688 50.4892L7.83885 50.4965L7.85092 50.5037L8.872 48.784ZM5.672 45.584L3.95229 46.6051L3.95946 46.6172L3.9668 46.6291L5.672 45.584ZM4.456 3.92V1.92H2.456V3.92H4.456ZM12.904 3.92H14.904V1.92H12.904V3.92ZM13.096 41.296L11.496 42.496L11.6674 42.7246L11.896 42.896L13.096 41.296ZM41.768 41.296L42.968 42.896L43.0817 42.8107L43.1822 42.7102L41.768 41.296ZM42.024 3.92V1.92H40.024V3.92H42.024ZM50.536 3.92H52.536V1.92H50.536V3.92ZM49.32 45.584L51.0252 46.6291L51.0325 46.6172L51.0397 46.6051L49.32 45.584ZM46.056 48.784L45.0349 47.0643L45.0229 47.0715L45.0109 47.0788L46.056 48.784ZM13.352 48C12.0821 48 10.9426 47.6875 9.89308 47.0643L7.85092 50.5037C9.53202 51.5019 11.3793 52 13.352 52V48ZM9.91712 47.0788C8.86347 46.433 8.02299 45.5925 7.3772 44.5389L3.9668 46.6291C4.94234 48.2208 6.2352 49.5137 7.82688 50.4892L9.91712 47.0788ZM7.39171 44.5629C6.76853 43.5134 6.456 42.3739 6.456 41.104H2.456C2.456 43.0767 2.95414 44.924 3.95229 46.6051L7.39171 44.5629ZM6.456 41.104V3.92H2.456V41.104H6.456ZM4.456 5.92H12.904V1.92H4.456V5.92ZM10.904 3.92V40.72H14.904V3.92H10.904ZM10.904 40.72C10.904 41.3661 11.1084 41.9791 11.496 42.496L14.696 40.096C14.754 40.1733 14.8098 40.2728 14.8494 40.3915C14.8889 40.5103 14.904 40.6234 14.904 40.72H10.904ZM11.896 42.896C12.4129 43.2836 13.0259 43.488 13.672 43.488V39.488C13.7686 39.488 13.8817 39.5031 14.0005 39.5426C14.1192 39.5822 14.2187 39.638 14.296 39.696L11.896 42.896ZM13.672 43.488H41.192V39.488H13.672V43.488ZM41.192 43.488C41.8381 43.488 42.4511 43.2836 42.968 42.896L40.568 39.696C40.6453 39.638 40.7448 39.5822 40.8635 39.5426C40.9823 39.5031 41.0954 39.488 41.192 39.488V43.488ZM43.1822 42.7102C43.6743 42.2182 44.024 41.5352 44.024 40.72H40.024C40.024 40.5513 40.0596 40.3755 40.1324 40.2117C40.2031 40.0527 40.291 39.9445 40.3538 39.8818L43.1822 42.7102ZM44.024 40.72V3.92H40.024V40.72H44.024ZM42.024 5.92H50.536V1.92H42.024V5.92ZM48.536 3.92V41.104H52.536V3.92H48.536ZM48.536 41.104C48.536 42.3739 48.2235 43.5134 47.6003 44.5629L51.0397 46.6051C52.0379 44.924 52.536 43.0767 52.536 41.104H48.536ZM47.6148 44.5389C46.9781 45.5777 46.1276 46.4155 45.0349 47.0643L47.0771 50.5037C48.715 49.5312 50.0406 48.2356 51.0252 46.6291L47.6148 44.5389ZM45.0109 47.0788C44.0173 47.6878 42.9099 48 41.64 48V52C43.6128 52 45.4494 51.5016 47.1011 50.4892L45.0109 47.0788ZM41.64 48H13.352V52H41.64V48ZM60.016 50H58.016V52H60.016V50ZM60.016 12.88V10.88H58.016V12.88H60.016ZM93.296 14.096L92.2509 15.8012L92.2628 15.8085L92.2749 15.8157L93.296 14.096ZM96.496 17.296L94.7664 18.3003L94.7784 18.3208L94.7908 18.3411L96.496 17.296ZM97.712 50V52H99.712V50H97.712ZM89.328 50H87.328V52H89.328V50ZM89.072 21.52L87.472 22.72L87.6434 22.9486L87.872 23.12L89.072 21.52ZM68.592 21.52L70.0062 22.9342L70.0062 22.9342L68.592 21.52ZM68.4 50V52H70.4V50H68.4ZM62.016 50V12.88H58.016V50H62.016ZM60.016 14.88H88.88V10.88H60.016V14.88ZM88.88 14.88C90.1499 14.88 91.2573 15.1922 92.2509 15.8012L94.3411 12.3908C92.6894 11.3784 90.8528 10.88 88.88 10.88V14.88ZM92.2749 15.8157C93.3586 16.4591 94.1764 17.2841 94.7664 18.3003L98.2256 16.2917C97.2796 14.6626 95.9641 13.3542 94.3171 12.3763L92.2749 15.8157ZM94.7908 18.3411C95.3998 19.3347 95.712 20.4421 95.712 21.712H99.712C99.712 19.7392 99.2136 17.9026 98.2012 16.2509L94.7908 18.3411ZM95.712 21.712V50H99.712V21.712H95.712ZM97.712 48H89.328V52H97.712V48ZM91.328 50V22.032H87.328V50H91.328ZM91.328 22.032C91.328 21.1892 90.9463 20.4257 90.272 19.92L87.872 23.12C87.7386 23.0199 87.587 22.8621 87.4751 22.6384C87.3633 22.4147 87.328 22.1988 87.328 22.032H91.328ZM90.672 20.32C90.1663 19.6457 89.4029 19.264 88.56 19.264V23.264C88.3932 23.264 88.1773 23.2287 87.9536 23.1169C87.7299 23.005 87.5721 22.8534 87.472 22.72L90.672 20.32ZM88.56 19.264H69.168V23.264H88.56V19.264ZM69.168 19.264C68.3528 19.264 67.6698 19.6137 67.1778 20.1058L70.0062 22.9342C69.9435 22.997 69.8353 23.0849 69.6763 23.1556C69.5126 23.2284 69.3368 23.264 69.168 23.264V19.264ZM67.1778 20.1058C66.6083 20.6753 66.4 21.3902 66.4 22.032H70.4C70.4 22.1251 70.3859 22.2723 70.3207 22.4462C70.2531 22.6263 70.1455 22.7949 70.0062 22.9342L67.1778 20.1058ZM66.4 22.032V50H70.4V22.032H66.4ZM68.4 48H60.016V52H68.4V48ZM108.227 45.584L109.932 44.5389L109.932 44.5389L108.227 45.584ZM107.011 0.655998V-1.344H105.011V0.655998H107.011ZM115.459 0.655998H117.459V-1.344H115.459V0.655998ZM115.651 41.424L114.051 42.624L114.222 42.8526L114.451 43.024L115.651 41.424ZM123.331 41.616H125.331V39.616H123.331V41.616ZM123.331 50V52H125.331V50H123.331ZM115.843 48C114.573 48 113.465 47.6878 112.472 47.0788L110.381 50.4892C112.033 51.5016 113.87 52 115.843 52V48ZM112.472 47.0788C111.418 46.433 110.577 45.5925 109.932 44.5389L106.521 46.6291C107.497 48.2208 108.79 49.5137 110.381 50.4892L112.472 47.0788ZM109.932 44.5389C109.323 43.5453 109.011 42.4379 109.011 41.168H105.011C105.011 43.1408 105.509 44.9774 106.521 46.6291L109.932 44.5389ZM109.011 41.168V0.655998H105.011V41.168H109.011ZM107.011 2.656H115.459V-1.344H107.011V2.656ZM113.459 0.655998V40.848H117.459V0.655998H113.459ZM113.459 40.848C113.459 41.4941 113.663 42.1071 114.051 42.624L117.251 40.224C117.308 40.3013 117.364 40.4008 117.404 40.5195C117.443 40.6383 117.459 40.7514 117.459 40.848H113.459ZM114.451 43.024C114.967 43.4116 115.58 43.616 116.227 43.616V39.616C116.323 39.616 116.436 39.6311 116.555 39.6706C116.674 39.7102 116.773 39.766 116.85 39.824L114.451 43.024ZM116.227 43.616H123.331V39.616H116.227V43.616ZM121.331 41.616V50H125.331V41.616H121.331ZM123.331 48H115.843V52H123.331V48ZM131.785 45.584L133.49 44.5389L133.49 44.5389L131.785 45.584ZM131.785 17.296L130.08 16.2509L130.08 16.2509L131.785 17.296ZM163.849 14.096L162.804 15.8012L162.816 15.8085L162.828 15.8157L163.849 14.096ZM167.049 17.296L165.319 18.3003L165.331 18.3208L165.344 18.3411L167.049 17.296ZM168.265 35.664V37.664H170.265V35.664H168.265ZM138.953 35.664V33.664H136.953V35.664H138.953ZM139.145 41.424L137.545 42.624L137.716 42.8526L137.945 43.024L139.145 41.424ZM168.265 41.616H170.265V39.616H168.265V41.616ZM168.265 50V52H170.265V50H168.265ZM138.953 28.112H136.953V30.112H138.953V28.112ZM159.881 28.112V30.112H161.881V28.112H159.881ZM159.625 21.52L158.025 22.72L158.196 22.9486L158.425 23.12L159.625 21.52ZM139.145 21.52L140.559 22.9342L139.145 21.52ZM139.401 48C138.131 48 137.024 47.6878 136.03 47.0788L133.94 50.4892C135.592 51.5016 137.428 52 139.401 52V48ZM136.03 47.0788C134.976 46.433 134.136 45.5925 133.49 44.5389L130.08 46.6291C131.055 48.2208 132.348 49.5137 133.94 50.4892L136.03 47.0788ZM133.49 44.5389C132.881 43.5453 132.569 42.4379 132.569 41.168H128.569C128.569 43.1408 129.067 44.9774 130.08 46.6291L133.49 44.5389ZM132.569 41.168V21.712H128.569V41.168H132.569ZM132.569 21.712C132.569 20.4421 132.881 19.3347 133.49 18.3411L130.08 16.2509C129.067 17.9026 128.569 19.7392 128.569 21.712H132.569ZM133.49 18.3411C134.136 17.2875 134.976 16.447 136.03 15.8012L133.94 12.3908C132.348 13.3663 131.055 14.6592 130.08 16.2509L133.49 18.3411ZM136.03 15.8012C137.024 15.1922 138.131 14.88 139.401 14.88V10.88C137.428 10.88 135.592 11.3784 133.94 12.3908L136.03 15.8012ZM139.401 14.88H159.433V10.88H139.401V14.88ZM159.433 14.88C160.703 14.88 161.81 15.1922 162.804 15.8012L164.894 12.3908C163.242 11.3784 161.406 10.88 159.433 10.88V14.88ZM162.828 15.8157C163.912 16.4591 164.729 17.2841 165.319 18.3003L168.779 16.2917C167.833 14.6626 166.517 13.3542 164.87 12.3763L162.828 15.8157ZM165.344 18.3411C165.953 19.3347 166.265 20.4421 166.265 21.712H170.265C170.265 19.7392 169.767 17.9026 168.754 16.2509L165.344 18.3411ZM166.265 21.712V35.664H170.265V21.712H166.265ZM168.265 33.664H138.953V37.664H168.265V33.664ZM136.953 35.664V40.848H140.953V35.664H136.953ZM136.953 40.848C136.953 41.4941 137.157 42.1071 137.545 42.624L140.745 40.224C140.803 40.3013 140.859 40.4008 140.898 40.5195C140.938 40.6383 140.953 40.7514 140.953 40.848H136.953ZM137.945 43.024C138.462 43.4116 139.075 43.616 139.721 43.616V39.616C139.818 39.616 139.931 39.6311 140.049 39.6706C140.168 39.7102 140.268 39.766 140.345 39.824L137.945 43.024ZM139.721 43.616H168.265V39.616H139.721V43.616ZM166.265 41.616V50H170.265V41.616H166.265ZM168.265 48H139.401V52H168.265V48ZM138.953 30.112H159.881V26.112H138.953V30.112ZM161.881 28.112V22.032H157.881V28.112H161.881ZM161.881 22.032C161.881 21.1892 161.499 20.4257 160.825 19.92L158.425 23.12C158.292 23.0199 158.14 22.8621 158.028 22.6384C157.916 22.4147 157.881 22.1988 157.881 22.032H161.881ZM161.225 20.32C160.719 19.6457 159.956 19.264 159.113 19.264V23.264C158.946 23.264 158.73 23.2287 158.507 23.1169C158.283 23.005 158.125 22.8534 158.025 22.72L161.225 20.32ZM159.113 19.264H139.721V23.264H159.113V19.264ZM139.721 19.264C138.906 19.264 138.223 19.6137 137.731 20.1058L140.559 22.9342C140.496 22.997 140.388 23.0849 140.229 23.1556C140.066 23.2284 139.89 23.264 139.721 23.264V19.264ZM137.731 20.1058C137.161 20.6753 136.953 21.3902 136.953 22.032H140.953C140.953 22.1251 140.939 22.2723 140.874 22.4462C140.806 22.6263 140.699 22.7949 140.559 22.9342L137.731 20.1058ZM136.953 22.032V28.112H140.953V22.032H136.953ZM181.858 48.784L180.812 50.4892L180.824 50.4965L180.836 50.5037L181.858 48.784ZM178.658 45.584L176.928 46.5883L176.94 46.6088L176.952 46.6291L178.658 45.584ZM177.506 27.216V25.216H175.506V27.216H177.506ZM206.818 27.216V29.216H208.818V27.216H206.818ZM206.562 21.52L204.962 22.72L205.133 22.9486L205.362 23.12L206.562 21.52ZM177.506 21.264H175.506V23.264H177.506V21.264ZM177.506 12.88V10.88H175.506V12.88H177.506ZM210.786 14.096L209.74 15.8012L209.752 15.8085L209.764 15.8157L210.786 14.096ZM213.986 17.296L212.256 18.3003L212.268 18.3208L212.28 18.3411L213.986 17.296ZM215.202 50V52H217.202V50H215.202ZM206.818 41.616V43.616H208.818V41.616H206.818ZM206.818 34.768H208.818V32.768H206.818V34.768ZM185.89 34.768V32.768H183.89V34.768H185.89ZM186.082 41.424L184.482 42.624L184.653 42.8526L184.882 43.024L186.082 41.424ZM186.338 48C185.068 48 183.928 47.6875 182.879 47.0643L180.836 50.5037C182.518 51.5019 184.365 52 186.338 52V48ZM182.903 47.0788C181.849 46.433 181.008 45.5925 180.363 44.5389L176.952 46.6291C177.928 48.2208 179.221 49.5137 180.812 50.4892L182.903 47.0788ZM180.387 44.5797C179.807 43.5806 179.506 42.4586 179.506 41.168H175.506C175.506 43.1201 175.972 44.9421 176.928 46.5883L180.387 44.5797ZM179.506 41.168V27.216H175.506V41.168H179.506ZM177.506 29.216H206.818V25.216H177.506V29.216ZM208.818 27.216V22.032H204.818V27.216H208.818ZM208.818 22.032C208.818 21.1892 208.436 20.4257 207.762 19.92L205.362 23.12C205.228 23.0199 205.077 22.8621 204.965 22.6384C204.853 22.4147 204.818 22.1988 204.818 22.032H208.818ZM208.162 20.32C207.656 19.6457 206.892 19.264 206.05 19.264V23.264C205.883 23.264 205.667 23.2287 205.443 23.1169C205.219 23.005 205.062 22.8534 204.962 22.72L208.162 20.32ZM206.05 19.264H177.506V23.264H206.05V19.264ZM179.506 21.264V12.88H175.506V21.264H179.506ZM177.506 14.88H206.37V10.88H177.506V14.88ZM206.37 14.88C207.639 14.88 208.747 15.1922 209.74 15.8012L211.831 12.3908C210.179 11.3784 208.342 10.88 206.37 10.88V14.88ZM209.764 15.8157C210.848 16.4591 211.666 17.2841 212.256 18.3003L215.715 16.2917C214.769 14.6626 213.454 13.3542 211.807 12.3763L209.764 15.8157ZM212.28 18.3411C212.889 19.3347 213.202 20.4421 213.202 21.712H217.202C217.202 19.7392 216.703 17.9026 215.691 16.2509L212.28 18.3411ZM213.202 21.712V50H217.202V21.712H213.202ZM215.202 48H186.338V52H215.202V48ZM186.658 43.616H206.818V39.616H186.658V43.616ZM208.818 41.616V34.768H204.818V41.616H208.818ZM206.818 32.768H185.89V36.768H206.818V32.768ZM183.89 34.768V40.848H187.89V34.768H183.89ZM183.89 40.848C183.89 41.4941 184.094 42.1071 184.482 42.624L187.682 40.224C187.739 40.3013 187.795 40.4008 187.835 40.5195C187.874 40.6383 187.89 40.7514 187.89 40.848H183.89ZM184.882 43.024C185.398 43.4116 186.011 43.616 186.658 43.616V39.616C186.754 39.616 186.867 39.6311 186.986 39.6706C187.105 39.7102 187.204 39.766 187.282 39.824L184.882 43.024ZM227.288 48.784L228.333 47.0788L228.333 47.0788L227.288 48.784ZM224.088 45.584L225.793 44.5389L225.793 44.5389L224.088 45.584ZM222.872 39.76V37.76H220.872V39.76H222.872ZM231.256 39.76H233.256V37.76H231.256V39.76ZM231.448 41.424L229.848 42.624L230.019 42.8526L230.248 43.024L231.448 41.424ZM251.928 41.424L253.342 42.8382L253.342 42.8382L251.928 41.424ZM251.928 35.92L250.328 37.12L250.499 37.3486L250.728 37.52L251.928 35.92ZM227.288 34.448L228.333 32.7428L228.333 32.7428L227.288 34.448ZM224.088 31.248L222.383 32.2931L224.088 31.248ZM224.088 17.296L225.793 18.3411L224.088 17.296ZM227.288 14.096L228.333 15.8012L228.333 15.8012L227.288 14.096ZM256.216 14.096L255.171 15.8012L255.171 15.8012L256.216 14.096ZM259.416 17.296L257.711 18.3411L259.416 17.296ZM260.632 23.12V25.12H262.632V23.12H260.632ZM252.184 23.12H250.184V25.12H252.184V23.12ZM251.928 21.52L250.328 22.72L250.499 22.9486L250.728 23.12L251.928 21.52ZM231.448 21.52L232.862 22.9342L232.862 22.9342L231.448 21.52ZM231.448 27.024L229.848 28.224L230.019 28.4526L230.248 28.624L231.448 27.024ZM256.216 28.432L255.171 30.1372L255.171 30.1372L256.216 28.432ZM259.416 31.632L257.711 32.6771L257.711 32.6771L259.416 31.632ZM259.416 45.584L257.711 44.5389L257.711 44.5389L259.416 45.584ZM256.216 48.784L255.171 47.0788L255.171 47.0788L256.216 48.784ZM231.704 48C230.434 48 229.327 47.6878 228.333 47.0788L226.243 50.4892C227.895 51.5016 229.731 52 231.704 52V48ZM228.333 47.0788C227.279 46.433 226.439 45.5925 225.793 44.5389L222.383 46.6291C223.358 48.2208 224.651 49.5137 226.243 50.4892L228.333 47.0788ZM225.793 44.5389C225.184 43.5453 224.872 42.4379 224.872 41.168H220.872C220.872 43.1408 221.37 44.9774 222.383 46.6291L225.793 44.5389ZM224.872 41.168V39.76H220.872V41.168H224.872ZM222.872 41.76H231.256V37.76H222.872V41.76ZM229.256 39.76V40.848H233.256V39.76H229.256ZM229.256 40.848C229.256 41.4941 229.46 42.1071 229.848 42.624L233.048 40.224C233.106 40.3013 233.162 40.4008 233.201 40.5195C233.241 40.6383 233.256 40.7514 233.256 40.848H229.256ZM230.248 43.024C230.765 43.4116 231.378 43.616 232.024 43.616V39.616C232.121 39.616 232.234 39.6311 232.352 39.6706C232.471 39.7102 232.571 39.766 232.648 39.824L230.248 43.024ZM232.024 43.616H251.416V39.616H232.024V43.616ZM251.416 43.616C252.058 43.616 252.773 43.4077 253.342 42.8382L250.514 40.0098C250.653 39.8705 250.822 39.7629 251.002 39.6953C251.176 39.6301 251.323 39.616 251.416 39.616V43.616ZM253.342 42.8382C253.834 42.3462 254.184 41.6632 254.184 40.848H250.184C250.184 40.6793 250.22 40.5034 250.292 40.3397C250.363 40.1807 250.451 40.0725 250.514 40.0098L253.342 42.8382ZM254.184 40.848V36.432H250.184V40.848H254.184ZM254.184 36.432C254.184 35.5891 253.802 34.8257 253.128 34.32L250.728 37.52C250.595 37.4199 250.443 37.2621 250.331 37.0384C250.219 36.8147 250.184 36.5988 250.184 36.432H254.184ZM253.528 34.72C253.022 34.0457 252.259 33.664 251.416 33.664V37.664C251.249 37.664 251.033 37.6287 250.81 37.5169C250.586 37.405 250.428 37.2534 250.328 37.12L253.528 34.72ZM251.416 33.664H231.704V37.664H251.416V33.664ZM231.704 33.664C230.434 33.664 229.327 33.3518 228.333 32.7428L226.243 36.1532C227.895 37.1656 229.731 37.664 231.704 37.664V33.664ZM228.333 32.7428C227.279 32.097 226.439 31.2565 225.793 30.2029L222.383 32.2931C223.358 33.8848 224.651 35.1777 226.243 36.1532L228.333 32.7428ZM225.793 30.2029C225.184 29.2093 224.872 28.1019 224.872 26.832H220.872C220.872 28.8048 221.37 30.6414 222.383 32.2931L225.793 30.2029ZM224.872 26.832V21.712H220.872V26.832H224.872ZM224.872 21.712C224.872 20.4421 225.184 19.3347 225.793 18.3411L222.383 16.2509C221.37 17.9026 220.872 19.7392 220.872 21.712H224.872ZM225.793 18.3411C226.439 17.2875 227.279 16.447 228.333 15.8012L226.243 12.3908C224.651 13.3663 223.358 14.6592 222.383 16.2509L225.793 18.3411ZM228.333 15.8012C229.327 15.1922 230.434 14.88 231.704 14.88V10.88C229.731 10.88 227.895 11.3784 226.243 12.3908L228.333 15.8012ZM231.704 14.88H251.736V10.88H231.704V14.88ZM251.736 14.88C253.059 14.88 254.186 15.1974 255.171 15.8012L257.261 12.3908C255.601 11.3733 253.741 10.88 251.736 10.88V14.88ZM255.171 15.8012C256.225 16.447 257.065 17.2875 257.711 18.3411L261.121 16.2509C260.146 14.6592 258.853 13.3663 257.261 12.3908L255.171 15.8012ZM257.711 18.3411C258.32 19.3347 258.632 20.4421 258.632 21.712H262.632C262.632 19.7392 262.134 17.9026 261.121 16.2509L257.711 18.3411ZM258.632 21.712V23.12H262.632V21.712H258.632ZM260.632 21.12H252.184V25.12H260.632V21.12ZM254.184 23.12V22.032H250.184V23.12H254.184ZM254.184 22.032C254.184 21.1892 253.802 20.4257 253.128 19.92L250.728 23.12C250.595 23.0199 250.443 22.8621 250.331 22.6384C250.219 22.4147 250.184 22.1988 250.184 22.032H254.184ZM253.528 20.32C253.022 19.6457 252.259 19.264 251.416 19.264V23.264C251.249 23.264 251.033 23.2287 250.81 23.1169C250.586 23.005 250.428 22.8534 250.328 22.72L253.528 20.32ZM251.416 19.264H232.024V23.264H251.416V19.264ZM232.024 19.264C231.209 19.264 230.526 19.6137 230.034 20.1058L232.862 22.9342C232.799 22.997 232.691 23.0849 232.532 23.1556C232.369 23.2284 232.193 23.264 232.024 23.264V19.264ZM230.034 20.1058C229.464 20.6753 229.256 21.3902 229.256 22.032H233.256C233.256 22.1251 233.242 22.2723 233.177 22.4462C233.109 22.6263 233.002 22.7949 232.862 22.9342L230.034 20.1058ZM229.256 22.032V26.448H233.256V22.032H229.256ZM229.256 26.448C229.256 27.0941 229.46 27.7071 229.848 28.224L233.048 25.824C233.106 25.9013 233.162 26.0008 233.201 26.1195C233.241 26.2383 233.256 26.3514 233.256 26.448H229.256ZM230.248 28.624C230.765 29.0116 231.378 29.216 232.024 29.216V25.216C232.121 25.216 232.234 25.2311 232.352 25.2706C232.471 25.3102 232.571 25.366 232.648 25.424L230.248 28.624ZM232.024 29.216H251.736V25.216H232.024V29.216ZM251.736 29.216C253.059 29.216 254.186 29.5334 255.171 30.1372L257.261 26.7268C255.601 25.7093 253.741 25.216 251.736 25.216V29.216ZM255.171 30.1372C256.225 30.783 257.065 31.6235 257.711 32.6771L261.121 30.5869C260.146 28.9952 258.853 27.7023 257.261 26.7268L255.171 30.1372ZM257.711 32.6771C258.32 33.6707 258.632 34.7781 258.632 36.048H262.632C262.632 34.0752 262.134 32.2386 261.121 30.5869L257.711 32.6771ZM258.632 36.048V41.168H262.632V36.048H258.632ZM258.632 41.168C258.632 42.4379 258.32 43.5453 257.711 44.5389L261.121 46.6291C262.134 44.9774 262.632 43.1408 262.632 41.168H258.632ZM257.711 44.5389C257.065 45.5925 256.225 46.433 255.171 47.0788L257.261 50.4892C258.853 49.5137 260.146 48.2208 261.121 46.6291L257.711 44.5389ZM255.171 47.0788C254.186 47.6826 253.059 48 251.736 48V52C253.741 52 255.601 51.5067 257.261 50.4892L255.171 47.0788ZM251.736 48H231.704V52H251.736V48ZM269.691 50H267.691V52H269.691V50ZM269.691 0.719997V-1.28H267.691V0.719997H269.691ZM278.075 0.719997H280.075V-1.28H278.075V0.719997ZM278.075 12.88H276.075V14.88H278.075V12.88ZM302.971 14.096L301.926 15.8012L301.926 15.8012L302.971 14.096ZM306.171 17.296L304.466 18.3411L306.171 17.296ZM307.387 50V52H309.387V50H307.387ZM299.003 50H297.003V52H299.003V50ZM298.747 21.52L297.147 22.72L297.318 22.9486L297.547 23.12L298.747 21.52ZM278.267 21.52L279.681 22.9342L279.681 22.9342L278.267 21.52ZM278.075 50V52H280.075V50H278.075ZM271.691 50V0.719997H267.691V50H271.691ZM269.691 2.72H278.075V-1.28H269.691V2.72ZM276.075 0.719997V12.88H280.075V0.719997H276.075ZM278.075 14.88H298.555V10.88H278.075V14.88ZM298.555 14.88C299.825 14.88 300.932 15.1922 301.926 15.8012L304.016 12.3908C302.364 11.3784 300.528 10.88 298.555 10.88V14.88ZM301.926 15.8012C302.98 16.447 303.82 17.2875 304.466 18.3411L307.876 16.2509C306.901 14.6592 305.608 13.3663 304.016 12.3908L301.926 15.8012ZM304.466 18.3411C305.075 19.3347 305.387 20.4421 305.387 21.712H309.387C309.387 19.7392 308.889 17.9026 307.876 16.2509L304.466 18.3411ZM305.387 21.712V50H309.387V21.712H305.387ZM307.387 48H299.003V52H307.387V48ZM301.003 50V22.032H297.003V50H301.003ZM301.003 22.032C301.003 21.1892 300.621 20.4257 299.947 19.92L297.547 23.12C297.414 23.0199 297.262 22.8621 297.15 22.6384C297.038 22.4147 297.003 22.1988 297.003 22.032H301.003ZM300.347 20.32C299.841 19.6457 299.078 19.264 298.235 19.264V23.264C298.068 23.264 297.852 23.2287 297.629 23.1169C297.405 23.005 297.247 22.8534 297.147 22.72L300.347 20.32ZM298.235 19.264H278.843V23.264H298.235V19.264ZM278.843 19.264C278.028 19.264 277.345 19.6137 276.853 20.1058L279.681 22.9342C279.618 22.997 279.51 23.0849 279.351 23.1556C279.188 23.2284 279.012 23.264 278.843 23.264V19.264ZM276.853 20.1058C276.283 20.6753 276.075 21.3902 276.075 22.032H280.075C280.075 22.1251 280.061 22.2723 279.996 22.4462C279.928 22.6263 279.821 22.7949 279.681 22.9342L276.853 20.1058ZM276.075 22.032V50H280.075V22.032H276.075ZM278.075 48H269.691V52H278.075V48Z" fill="url(#paint0_linear_5_40)"/>
</g>
<defs>
<filter id="filter0_d_5_40" x="0.456055" y="0.656006" width="310.931" height="57.344" filterUnits="userSpaceOnUse" color-interpolation-filters="sRGB">
<feFlood flood-opacity="0" result="BackgroundImageFix"/>
<feColorMatrix in="SourceAlpha" type="matrix" values="0 0 0 0 0 0 0 0 0 0 0 0 0 0 0 0 0 0 127 0" result="hardAlpha"/>
<feOffset dy="4"/>
<feGaussianBlur stdDeviation="2"/>
<feComposite in2="hardAlpha" operator="out"/>
<feColorMatrix type="matrix" values="0 0 0 0 0 0 0 0 0 0 0 0 0 0 0 0 0 0 0.25 0"/>
<feBlend mode="normal" in2="BackgroundImageFix" result="effect1_dropShadow_5_40"/>
<feBlend mode="normal" in="SourceGraphic" in2="effect1_dropShadow_5_40" result="shape"/>
</filter>
<linearGradient id="paint0_linear_5_40" x1="-18.4819" y1="-29" x2="321.06" y2="-29" gradientUnits="userSpaceOnUse">
<stop stop-color="#FF4300"/>
<stop offset="1" stop-color="#FF6400"/>
</linearGradient>
</defs>
</svg>
